<mxfile host="Electron" agent="Mozilla/5.0 (Windows NT 10.0; Win64; x64) AppleWebKit/537.36 (KHTML, like Gecko) draw.io/26.0.9 Chrome/128.0.6613.186 Electron/32.2.5 Safari/537.36" version="26.0.9">
  <diagram name="Страница — 1" id="5TvneWT26WkuoBrLNoFA">
    <mxGraphModel dx="2489" dy="962" grid="1" gridSize="10" guides="1" tooltips="1" connect="1" arrows="1" fold="1" page="1" pageScale="1" pageWidth="827" pageHeight="1169" math="0" shadow="0">
      <root>
        <mxCell id="0" />
        <mxCell id="1" parent="0" />
        <mxCell id="NpEABJv8DlSJVsdV68Jq-5" value="&lt;b&gt;AFarmAnimal&lt;/b&gt;" style="swimlane;fontStyle=0;childLayout=stackLayout;horizontal=1;startSize=26;fillColor=none;horizontalStack=0;resizeParent=1;resizeParentMax=0;resizeLast=0;collapsible=1;marginBottom=0;whiteSpace=wrap;html=1;" vertex="1" parent="1">
          <mxGeometry x="120" y="130" width="140" height="78" as="geometry" />
        </mxCell>
        <mxCell id="NpEABJv8DlSJVsdV68Jq-6" value="# name: str" style="text;strokeColor=none;fillColor=none;align=left;verticalAlign=top;spacingLeft=4;spacingRight=4;overflow=hidden;rotatable=0;points=[[0,0.5],[1,0.5]];portConstraint=eastwest;whiteSpace=wrap;html=1;" vertex="1" parent="NpEABJv8DlSJVsdV68Jq-5">
          <mxGeometry y="26" width="140" height="26" as="geometry" />
        </mxCell>
        <mxCell id="NpEABJv8DlSJVsdV68Jq-7" value="# weight: float" style="text;strokeColor=none;fillColor=none;align=left;verticalAlign=top;spacingLeft=4;spacingRight=4;overflow=hidden;rotatable=0;points=[[0,0.5],[1,0.5]];portConstraint=eastwest;whiteSpace=wrap;html=1;" vertex="1" parent="NpEABJv8DlSJVsdV68Jq-5">
          <mxGeometry y="52" width="140" height="26" as="geometry" />
        </mxCell>
        <mxCell id="NpEABJv8DlSJVsdV68Jq-9" value="Cow" style="swimlane;fontStyle=1;align=center;verticalAlign=top;childLayout=stackLayout;horizontal=1;startSize=26;horizontalStack=0;resizeParent=1;resizeParentMax=0;resizeLast=0;collapsible=1;marginBottom=0;whiteSpace=wrap;html=1;" vertex="1" parent="1">
          <mxGeometry x="-80" y="290" width="160" height="86" as="geometry" />
        </mxCell>
        <mxCell id="NpEABJv8DlSJVsdV68Jq-10" value="- calfs: Cow[]" style="text;strokeColor=none;fillColor=none;align=left;verticalAlign=top;spacingLeft=4;spacingRight=4;overflow=hidden;rotatable=0;points=[[0,0.5],[1,0.5]];portConstraint=eastwest;whiteSpace=wrap;html=1;" vertex="1" parent="NpEABJv8DlSJVsdV68Jq-9">
          <mxGeometry y="26" width="160" height="26" as="geometry" />
        </mxCell>
        <mxCell id="NpEABJv8DlSJVsdV68Jq-11" value="" style="line;strokeWidth=1;fillColor=none;align=left;verticalAlign=middle;spacingTop=-1;spacingLeft=3;spacingRight=3;rotatable=0;labelPosition=right;points=[];portConstraint=eastwest;strokeColor=inherit;" vertex="1" parent="NpEABJv8DlSJVsdV68Jq-9">
          <mxGeometry y="52" width="160" height="8" as="geometry" />
        </mxCell>
        <mxCell id="NpEABJv8DlSJVsdV68Jq-12" value="+&amp;nbsp;eat_grass():" style="text;strokeColor=none;fillColor=none;align=left;verticalAlign=top;spacingLeft=4;spacingRight=4;overflow=hidden;rotatable=0;points=[[0,0.5],[1,0.5]];portConstraint=eastwest;whiteSpace=wrap;html=1;" vertex="1" parent="NpEABJv8DlSJVsdV68Jq-9">
          <mxGeometry y="60" width="160" height="26" as="geometry" />
        </mxCell>
        <mxCell id="NpEABJv8DlSJVsdV68Jq-13" value="&lt;b&gt;Chicken&lt;/b&gt;" style="swimlane;fontStyle=0;childLayout=stackLayout;horizontal=1;startSize=26;fillColor=none;horizontalStack=0;resizeParent=1;resizeParentMax=0;resizeLast=0;collapsible=1;marginBottom=0;whiteSpace=wrap;html=1;" vertex="1" parent="1">
          <mxGeometry x="-80" y="420" width="160" height="52" as="geometry" />
        </mxCell>
        <mxCell id="NpEABJv8DlSJVsdV68Jq-14" value="- eggs: int" style="text;strokeColor=none;fillColor=none;align=left;verticalAlign=top;spacingLeft=4;spacingRight=4;overflow=hidden;rotatable=0;points=[[0,0.5],[1,0.5]];portConstraint=eastwest;whiteSpace=wrap;html=1;" vertex="1" parent="NpEABJv8DlSJVsdV68Jq-13">
          <mxGeometry y="26" width="160" height="26" as="geometry" />
        </mxCell>
        <mxCell id="NpEABJv8DlSJVsdV68Jq-17" value="&lt;b&gt;Sheep&lt;/b&gt;" style="swimlane;fontStyle=0;childLayout=stackLayout;horizontal=1;startSize=26;fillColor=none;horizontalStack=0;resizeParent=1;resizeParentMax=0;resizeLast=0;collapsible=1;marginBottom=0;whiteSpace=wrap;html=1;" vertex="1" parent="1">
          <mxGeometry x="-80" y="533" width="160" height="52" as="geometry" />
        </mxCell>
        <mxCell id="NpEABJv8DlSJVsdV68Jq-18" value="- wool: float" style="text;strokeColor=none;fillColor=none;align=left;verticalAlign=top;spacingLeft=4;spacingRight=4;overflow=hidden;rotatable=0;points=[[0,0.5],[1,0.5]];portConstraint=eastwest;whiteSpace=wrap;html=1;" vertex="1" parent="NpEABJv8DlSJVsdV68Jq-17">
          <mxGeometry y="26" width="160" height="26" as="geometry" />
        </mxCell>
        <mxCell id="NpEABJv8DlSJVsdV68Jq-21" value="" style="endArrow=block;endFill=0;endSize=12;html=1;rounded=0;exitX=1;exitY=0.013;exitDx=0;exitDy=0;exitPerimeter=0;entryX=0.481;entryY=1.042;entryDx=0;entryDy=0;entryPerimeter=0;" edge="1" parent="1" source="NpEABJv8DlSJVsdV68Jq-18" target="NpEABJv8DlSJVsdV68Jq-7">
          <mxGeometry width="160" relative="1" as="geometry">
            <mxPoint x="90.47999999999979" y="559.38" as="sourcePoint" />
            <mxPoint x="260" y="558.62" as="targetPoint" />
            <Array as="points">
              <mxPoint x="190" y="560" />
            </Array>
          </mxGeometry>
        </mxCell>
        <mxCell id="NpEABJv8DlSJVsdV68Jq-23" value="" style="endArrow=none;endFill=1;endSize=12;html=1;rounded=0;exitX=0.998;exitY=0;exitDx=0;exitDy=0;exitPerimeter=0;startFill=0;" edge="1" parent="1" source="NpEABJv8DlSJVsdV68Jq-14">
          <mxGeometry width="160" relative="1" as="geometry">
            <mxPoint x="90" y="445.71" as="sourcePoint" />
            <mxPoint x="190" y="446" as="targetPoint" />
          </mxGeometry>
        </mxCell>
        <mxCell id="NpEABJv8DlSJVsdV68Jq-24" value="" style="endArrow=none;endFill=1;endSize=12;html=1;rounded=0;exitX=0.998;exitY=0;exitDx=0;exitDy=0;exitPerimeter=0;startFill=0;" edge="1" parent="1">
          <mxGeometry width="160" relative="1" as="geometry">
            <mxPoint x="80" y="350" as="sourcePoint" />
            <mxPoint x="190" y="350" as="targetPoint" />
          </mxGeometry>
        </mxCell>
        <mxCell id="NpEABJv8DlSJVsdV68Jq-26" value="AFarmEquipment" style="swimlane;fontStyle=1;align=center;verticalAlign=top;childLayout=stackLayout;horizontal=1;startSize=26;horizontalStack=0;resizeParent=1;resizeParentMax=0;resizeLast=0;collapsible=1;marginBottom=0;whiteSpace=wrap;html=1;strokeColor=default;" vertex="1" parent="1">
          <mxGeometry x="580" y="120" width="160" height="60" as="geometry" />
        </mxCell>
        <mxCell id="NpEABJv8DlSJVsdV68Jq-27" value="# speed: int" style="text;strokeColor=none;fillColor=none;align=left;verticalAlign=top;spacingLeft=4;spacingRight=4;overflow=hidden;rotatable=0;points=[[0,0.5],[1,0.5]];portConstraint=eastwest;whiteSpace=wrap;html=1;fontStyle=1" vertex="1" parent="NpEABJv8DlSJVsdV68Jq-26">
          <mxGeometry y="26" width="160" height="26" as="geometry" />
        </mxCell>
        <mxCell id="NpEABJv8DlSJVsdV68Jq-28" value="" style="line;strokeWidth=1;fillColor=none;align=left;verticalAlign=middle;spacingTop=-1;spacingLeft=3;spacingRight=3;rotatable=0;labelPosition=right;points=[];portConstraint=eastwest;strokeColor=inherit;fontStyle=1" vertex="1" parent="NpEABJv8DlSJVsdV68Jq-26">
          <mxGeometry y="52" width="160" height="8" as="geometry" />
        </mxCell>
        <mxCell id="NpEABJv8DlSJVsdV68Jq-30" value="Tractor" style="swimlane;fontStyle=1;align=center;verticalAlign=top;childLayout=stackLayout;horizontal=1;startSize=26;horizontalStack=0;resizeParent=1;resizeParentMax=0;resizeLast=0;collapsible=1;marginBottom=0;whiteSpace=wrap;html=1;" vertex="1" parent="1">
          <mxGeometry x="810" y="280" width="160" height="60" as="geometry" />
        </mxCell>
        <mxCell id="NpEABJv8DlSJVsdV68Jq-32" value="" style="line;strokeWidth=1;fillColor=none;align=left;verticalAlign=middle;spacingTop=-1;spacingLeft=3;spacingRight=3;rotatable=0;labelPosition=right;points=[];portConstraint=eastwest;strokeColor=inherit;" vertex="1" parent="NpEABJv8DlSJVsdV68Jq-30">
          <mxGeometry y="26" width="160" height="8" as="geometry" />
        </mxCell>
        <mxCell id="NpEABJv8DlSJVsdV68Jq-33" value="+ drive():" style="text;strokeColor=none;fillColor=none;align=left;verticalAlign=top;spacingLeft=4;spacingRight=4;overflow=hidden;rotatable=0;points=[[0,0.5],[1,0.5]];portConstraint=eastwest;whiteSpace=wrap;html=1;" vertex="1" parent="NpEABJv8DlSJVsdV68Jq-30">
          <mxGeometry y="34" width="160" height="26" as="geometry" />
        </mxCell>
        <mxCell id="NpEABJv8DlSJVsdV68Jq-38" value="&lt;b&gt;Harvester&lt;/b&gt;" style="swimlane;fontStyle=1;align=center;verticalAlign=top;childLayout=stackLayout;horizontal=1;startSize=26;horizontalStack=0;resizeParent=1;resizeParentMax=0;resizeLast=0;collapsible=1;marginBottom=0;whiteSpace=wrap;html=1;" vertex="1" parent="1">
          <mxGeometry x="810" y="410" width="160" height="86" as="geometry" />
        </mxCell>
        <mxCell id="NpEABJv8DlSJVsdV68Jq-39" value="-&amp;nbsp;harvested_grain: int" style="text;strokeColor=none;fillColor=none;align=left;verticalAlign=top;spacingLeft=4;spacingRight=4;overflow=hidden;rotatable=0;points=[[0,0.5],[1,0.5]];portConstraint=eastwest;whiteSpace=wrap;html=1;" vertex="1" parent="NpEABJv8DlSJVsdV68Jq-38">
          <mxGeometry y="26" width="160" height="26" as="geometry" />
        </mxCell>
        <mxCell id="NpEABJv8DlSJVsdV68Jq-40" value="" style="line;strokeWidth=1;fillColor=none;align=left;verticalAlign=middle;spacingTop=-1;spacingLeft=3;spacingRight=3;rotatable=0;labelPosition=right;points=[];portConstraint=eastwest;strokeColor=inherit;" vertex="1" parent="NpEABJv8DlSJVsdV68Jq-38">
          <mxGeometry y="52" width="160" height="8" as="geometry" />
        </mxCell>
        <mxCell id="NpEABJv8DlSJVsdV68Jq-41" value="+ collect_grain(grain: int)" style="text;strokeColor=none;fillColor=none;align=left;verticalAlign=top;spacingLeft=4;spacingRight=4;overflow=hidden;rotatable=0;points=[[0,0.5],[1,0.5]];portConstraint=eastwest;whiteSpace=wrap;html=1;" vertex="1" parent="NpEABJv8DlSJVsdV68Jq-38">
          <mxGeometry y="60" width="160" height="26" as="geometry" />
        </mxCell>
        <mxCell id="NpEABJv8DlSJVsdV68Jq-42" value="" style="endArrow=block;endFill=0;endSize=12;html=1;rounded=0;exitX=0.01;exitY=1.071;exitDx=0;exitDy=0;exitPerimeter=0;fontStyle=1" edge="1" parent="1" source="NpEABJv8DlSJVsdV68Jq-39">
          <mxGeometry width="160" relative="1" as="geometry">
            <mxPoint x="610" y="390" as="sourcePoint" />
            <mxPoint x="650" y="180" as="targetPoint" />
            <Array as="points">
              <mxPoint x="650" y="470" />
            </Array>
          </mxGeometry>
        </mxCell>
        <mxCell id="NpEABJv8DlSJVsdV68Jq-44" value="" style="endArrow=block;endFill=0;endSize=12;html=1;rounded=0;exitX=-0.003;exitY=0.134;exitDx=0;exitDy=0;exitPerimeter=0;fontStyle=1" edge="1" parent="1" source="NpEABJv8DlSJVsdV68Jq-33">
          <mxGeometry width="160" relative="1" as="geometry">
            <mxPoint x="780" y="320" as="sourcePoint" />
            <mxPoint x="650" y="180" as="targetPoint" />
            <Array as="points">
              <mxPoint x="650" y="320" />
            </Array>
          </mxGeometry>
        </mxCell>
        <mxCell id="NpEABJv8DlSJVsdV68Jq-45" value="&lt;b&gt;Abuilding&lt;/b&gt;" style="swimlane;fontStyle=0;childLayout=stackLayout;horizontal=1;startSize=26;fillColor=none;horizontalStack=0;resizeParent=1;resizeParentMax=0;resizeLast=0;collapsible=1;marginBottom=0;whiteSpace=wrap;html=1;" vertex="1" parent="1">
          <mxGeometry x="344" y="570" width="140" height="52" as="geometry" />
        </mxCell>
        <mxCell id="NpEABJv8DlSJVsdV68Jq-46" value="&lt;b&gt;# is_built: bool&lt;/b&gt;" style="text;strokeColor=none;fillColor=none;align=left;verticalAlign=top;spacingLeft=4;spacingRight=4;overflow=hidden;rotatable=0;points=[[0,0.5],[1,0.5]];portConstraint=eastwest;whiteSpace=wrap;html=1;" vertex="1" parent="NpEABJv8DlSJVsdV68Jq-45">
          <mxGeometry y="26" width="140" height="26" as="geometry" />
        </mxCell>
        <mxCell id="NpEABJv8DlSJVsdV68Jq-49" value="AField" style="swimlane;fontStyle=1;align=center;verticalAlign=top;childLayout=stackLayout;horizontal=1;startSize=26;horizontalStack=0;resizeParent=1;resizeParentMax=0;resizeLast=0;collapsible=1;marginBottom=0;whiteSpace=wrap;html=1;" vertex="1" parent="1">
          <mxGeometry x="334" y="720" width="276" height="86" as="geometry" />
        </mxCell>
        <mxCell id="NpEABJv8DlSJVsdV68Jq-50" value="&lt;b&gt;# planet_plants: Vegetable[], GrainGroup[]&lt;/b&gt;" style="text;strokeColor=none;fillColor=none;align=left;verticalAlign=top;spacingLeft=4;spacingRight=4;overflow=hidden;rotatable=0;points=[[0,0.5],[1,0.5]];portConstraint=eastwest;whiteSpace=wrap;html=1;" vertex="1" parent="NpEABJv8DlSJVsdV68Jq-49">
          <mxGeometry y="26" width="276" height="26" as="geometry" />
        </mxCell>
        <mxCell id="NpEABJv8DlSJVsdV68Jq-51" value="" style="line;strokeWidth=1;fillColor=none;align=left;verticalAlign=middle;spacingTop=-1;spacingLeft=3;spacingRight=3;rotatable=0;labelPosition=right;points=[];portConstraint=eastwest;strokeColor=inherit;" vertex="1" parent="NpEABJv8DlSJVsdV68Jq-49">
          <mxGeometry y="52" width="276" height="8" as="geometry" />
        </mxCell>
        <mxCell id="NpEABJv8DlSJVsdV68Jq-52" value="&lt;b&gt;+ planet(vechetebals: Vegetable, GrainGroup&amp;nbsp;)&lt;/b&gt;" style="text;strokeColor=none;fillColor=none;align=left;verticalAlign=top;spacingLeft=4;spacingRight=4;overflow=hidden;rotatable=0;points=[[0,0.5],[1,0.5]];portConstraint=eastwest;whiteSpace=wrap;html=1;" vertex="1" parent="NpEABJv8DlSJVsdV68Jq-49">
          <mxGeometry y="60" width="276" height="26" as="geometry" />
        </mxCell>
        <mxCell id="NpEABJv8DlSJVsdV68Jq-54" value="&lt;b&gt;GreenHouse&lt;/b&gt;" style="swimlane;fontStyle=0;childLayout=stackLayout;horizontal=1;startSize=26;fillColor=none;horizontalStack=0;resizeParent=1;resizeParentMax=0;resizeLast=0;collapsible=1;marginBottom=0;whiteSpace=wrap;html=1;" vertex="1" parent="1">
          <mxGeometry x="400" y="920" width="140" height="52" as="geometry" />
        </mxCell>
        <mxCell id="NpEABJv8DlSJVsdV68Jq-55" value="-&amp;nbsp;temperature: float" style="text;strokeColor=none;fillColor=none;align=left;verticalAlign=top;spacingLeft=4;spacingRight=4;overflow=hidden;rotatable=0;points=[[0,0.5],[1,0.5]];portConstraint=eastwest;whiteSpace=wrap;html=1;" vertex="1" parent="NpEABJv8DlSJVsdV68Jq-54">
          <mxGeometry y="26" width="140" height="26" as="geometry" />
        </mxCell>
        <mxCell id="NpEABJv8DlSJVsdV68Jq-58" value="" style="endArrow=block;endFill=0;endSize=12;html=1;rounded=0;entryX=0.538;entryY=1.02;entryDx=0;entryDy=0;entryPerimeter=0;" edge="1" parent="1" target="NpEABJv8DlSJVsdV68Jq-52">
          <mxGeometry width="160" relative="1" as="geometry">
            <mxPoint x="483" y="920" as="sourcePoint" />
            <mxPoint x="483" y="810" as="targetPoint" />
          </mxGeometry>
        </mxCell>
        <mxCell id="NpEABJv8DlSJVsdV68Jq-60" value="Vegetable" style="swimlane;fontStyle=0;childLayout=stackLayout;horizontal=1;startSize=26;fillColor=none;horizontalStack=0;resizeParent=1;resizeParentMax=0;resizeLast=0;collapsible=1;marginBottom=0;whiteSpace=wrap;html=1;" vertex="1" parent="1">
          <mxGeometry x="910" y="730" width="140" height="52" as="geometry" />
        </mxCell>
        <mxCell id="NpEABJv8DlSJVsdV68Jq-61" value="- name: str" style="text;strokeColor=none;fillColor=none;align=left;verticalAlign=top;spacingLeft=4;spacingRight=4;overflow=hidden;rotatable=0;points=[[0,0.5],[1,0.5]];portConstraint=eastwest;whiteSpace=wrap;html=1;" vertex="1" parent="NpEABJv8DlSJVsdV68Jq-60">
          <mxGeometry y="26" width="140" height="26" as="geometry" />
        </mxCell>
        <mxCell id="NpEABJv8DlSJVsdV68Jq-64" value="1*" style="endArrow=open;html=1;endSize=12;startArrow=diamondThin;startSize=14;startFill=0;edgeStyle=orthogonalEdgeStyle;align=left;verticalAlign=bottom;rounded=0;entryX=1;entryY=0.179;entryDx=0;entryDy=0;entryPerimeter=0;exitX=0.004;exitY=0.409;exitDx=0;exitDy=0;exitPerimeter=0;" edge="1" parent="1" source="NpEABJv8DlSJVsdV68Jq-60" target="NpEABJv8DlSJVsdV68Jq-50">
          <mxGeometry x="-0.7989" y="-11" relative="1" as="geometry">
            <mxPoint x="720" y="750" as="sourcePoint" />
            <mxPoint x="880" y="750" as="targetPoint" />
            <mxPoint as="offset" />
          </mxGeometry>
        </mxCell>
        <mxCell id="NpEABJv8DlSJVsdV68Jq-65" value="GrainGroup" style="swimlane;fontStyle=0;childLayout=stackLayout;horizontal=1;startSize=26;fillColor=none;horizontalStack=0;resizeParent=1;resizeParentMax=0;resizeLast=0;collapsible=1;marginBottom=0;whiteSpace=wrap;html=1;" vertex="1" parent="1">
          <mxGeometry x="930" y="830" width="140" height="52" as="geometry" />
        </mxCell>
        <mxCell id="NpEABJv8DlSJVsdV68Jq-66" value="- name: str" style="text;strokeColor=none;fillColor=none;align=left;verticalAlign=top;spacingLeft=4;spacingRight=4;overflow=hidden;rotatable=0;points=[[0,0.5],[1,0.5]];portConstraint=eastwest;whiteSpace=wrap;html=1;" vertex="1" parent="NpEABJv8DlSJVsdV68Jq-65">
          <mxGeometry y="26" width="140" height="26" as="geometry" />
        </mxCell>
        <mxCell id="NpEABJv8DlSJVsdV68Jq-67" value="1*" style="endArrow=open;html=1;endSize=12;startArrow=diamondThin;startSize=14;startFill=0;edgeStyle=orthogonalEdgeStyle;align=left;verticalAlign=bottom;rounded=0;exitX=-0.003;exitY=0.381;exitDx=0;exitDy=0;exitPerimeter=0;entryX=0.783;entryY=0.97;entryDx=0;entryDy=0;entryPerimeter=0;" edge="1" parent="1" source="NpEABJv8DlSJVsdV68Jq-65" target="NpEABJv8DlSJVsdV68Jq-52">
          <mxGeometry x="-0.8207" y="-10" relative="1" as="geometry">
            <mxPoint x="913" y="856.24" as="sourcePoint" />
            <mxPoint x="550" y="810" as="targetPoint" />
            <mxPoint as="offset" />
            <Array as="points">
              <mxPoint x="913" y="850" />
              <mxPoint x="913" y="840" />
              <mxPoint x="840" y="840" />
              <mxPoint x="840" y="850" />
              <mxPoint x="550" y="850" />
            </Array>
          </mxGeometry>
        </mxCell>
      </root>
    </mxGraphModel>
  </diagram>
</mxfile>
